<mxfile host="Electron" modified="2024-03-02T12:51:02.942Z" agent="Mozilla/5.0 (Windows NT 10.0; Win64; x64) AppleWebKit/537.36 (KHTML, like Gecko) draw.io/22.1.2 Chrome/114.0.5735.289 Electron/25.9.4 Safari/537.36" etag="F4CHrUwRl65Vy_2w_PWW" version="22.1.2" type="device">
  <diagram name="Страница — 1" id="w-h_500Q-D1ag2ivK0cX">
    <mxGraphModel dx="915" dy="723" grid="1" gridSize="10" guides="1" tooltips="1" connect="1" arrows="1" fold="1" page="1" pageScale="1" pageWidth="827" pageHeight="1169" math="0" shadow="0">
      <root>
        <mxCell id="0" />
        <mxCell id="1" parent="0" />
        <mxCell id="JOa6reIYoMXjY_oYYzPY-6" style="edgeStyle=orthogonalEdgeStyle;rounded=0;orthogonalLoop=1;jettySize=auto;html=1;entryX=0.5;entryY=0;entryDx=0;entryDy=0;" edge="1" parent="1" source="JOa6reIYoMXjY_oYYzPY-1" target="JOa6reIYoMXjY_oYYzPY-5">
          <mxGeometry relative="1" as="geometry" />
        </mxCell>
        <mxCell id="JOa6reIYoMXjY_oYYzPY-1" value="начало" style="rounded=1;whiteSpace=wrap;html=1;" vertex="1" parent="1">
          <mxGeometry x="146" y="10" width="120" height="20" as="geometry" />
        </mxCell>
        <mxCell id="JOa6reIYoMXjY_oYYzPY-2" value="&lt;div&gt;#include &amp;lt;iostream&amp;gt;&lt;/div&gt;&lt;div&gt;using namespace std;&lt;/div&gt;&lt;div&gt;&lt;br&gt;&lt;/div&gt;&lt;div&gt;const int ARR_SIZE = 100;&lt;/div&gt;&lt;div&gt;&lt;div&gt;&lt;br&gt;&lt;/div&gt;&lt;div&gt;int main()&lt;/div&gt;&lt;div&gt;{&lt;/div&gt;&lt;div&gt;int i_arr[ARR_SIZE], n;&lt;span style=&quot;&quot;&gt;&lt;/span&gt;&lt;/div&gt;&lt;div&gt;&lt;span style=&quot;&quot;&gt;&lt;span style=&quot;&quot;&gt;&lt;span style=&quot;white-space: pre;&quot;&gt;&amp;nbsp;&amp;nbsp;&amp;nbsp;&amp;nbsp;&lt;/span&gt;&lt;/span&gt;float f_arr[ARR_SIZE];&lt;/span&gt;&lt;/div&gt;&lt;div&gt;&lt;span style=&quot;&quot;&gt;&lt;span style=&quot;&quot;&gt;&lt;span style=&quot;white-space: pre;&quot;&gt;&amp;nbsp;&amp;nbsp;&amp;nbsp;&amp;nbsp;&lt;/span&gt;&lt;/span&gt;double d_arr[ARR_SIZE];&lt;/span&gt;&lt;/div&gt;&lt;/div&gt;" style="strokeWidth=2;html=1;shape=mxgraph.flowchart.annotation_2;align=left;labelPosition=right;pointerEvents=1;" vertex="1" parent="1">
          <mxGeometry x="312" y="10" width="20" height="140" as="geometry" />
        </mxCell>
        <mxCell id="JOa6reIYoMXjY_oYYzPY-9" value="" style="edgeStyle=orthogonalEdgeStyle;rounded=0;orthogonalLoop=1;jettySize=auto;html=1;" edge="1" parent="1" source="JOa6reIYoMXjY_oYYzPY-5" target="JOa6reIYoMXjY_oYYzPY-8">
          <mxGeometry relative="1" as="geometry" />
        </mxCell>
        <mxCell id="JOa6reIYoMXjY_oYYzPY-5" value="cout &amp;lt;&amp;lt; &quot;Enter the array size: &quot;;" style="shape=parallelogram;perimeter=parallelogramPerimeter;whiteSpace=wrap;html=1;fixedSize=1;" vertex="1" parent="1">
          <mxGeometry x="100" y="120" width="212" height="40" as="geometry" />
        </mxCell>
        <mxCell id="JOa6reIYoMXjY_oYYzPY-7" value="" style="endArrow=none;dashed=1;html=1;rounded=0;entryX=0;entryY=0.5;entryDx=0;entryDy=0;entryPerimeter=0;" edge="1" parent="1" target="JOa6reIYoMXjY_oYYzPY-2">
          <mxGeometry width="50" height="50" relative="1" as="geometry">
            <mxPoint x="205" y="80" as="sourcePoint" />
            <mxPoint x="242" y="170" as="targetPoint" />
          </mxGeometry>
        </mxCell>
        <mxCell id="JOa6reIYoMXjY_oYYzPY-11" value="" style="edgeStyle=orthogonalEdgeStyle;rounded=0;orthogonalLoop=1;jettySize=auto;html=1;" edge="1" parent="1" source="JOa6reIYoMXjY_oYYzPY-8" target="JOa6reIYoMXjY_oYYzPY-10">
          <mxGeometry relative="1" as="geometry" />
        </mxCell>
        <mxCell id="JOa6reIYoMXjY_oYYzPY-8" value="cin &amp;gt;&amp;gt; n;" style="shape=parallelogram;perimeter=parallelogramPerimeter;whiteSpace=wrap;html=1;fixedSize=1;" vertex="1" parent="1">
          <mxGeometry x="146" y="190" width="120" height="40" as="geometry" />
        </mxCell>
        <mxCell id="JOa6reIYoMXjY_oYYzPY-13" value="" style="edgeStyle=orthogonalEdgeStyle;rounded=0;orthogonalLoop=1;jettySize=auto;html=1;" edge="1" parent="1" source="JOa6reIYoMXjY_oYYzPY-10" target="JOa6reIYoMXjY_oYYzPY-12">
          <mxGeometry relative="1" as="geometry" />
        </mxCell>
        <mxCell id="JOa6reIYoMXjY_oYYzPY-10" value="&lt;div&gt;cout &amp;lt;&amp;lt; endl&amp;nbsp;&lt;span style=&quot;background-color: initial;&quot;&gt;&amp;lt;&amp;lt; &quot;Fill an array with integers:&quot; &amp;lt;&amp;lt; endl;&lt;/span&gt;&lt;/div&gt;&lt;div&gt;&lt;span style=&quot;&quot;&gt;&lt;/span&gt;&lt;/div&gt;" style="shape=parallelogram;perimeter=parallelogramPerimeter;whiteSpace=wrap;html=1;fixedSize=1;" vertex="1" parent="1">
          <mxGeometry x="50" y="260" width="312" height="40" as="geometry" />
        </mxCell>
        <mxCell id="JOa6reIYoMXjY_oYYzPY-15" value="" style="edgeStyle=orthogonalEdgeStyle;rounded=0;orthogonalLoop=1;jettySize=auto;html=1;" edge="1" parent="1" source="JOa6reIYoMXjY_oYYzPY-12" target="JOa6reIYoMXjY_oYYzPY-14">
          <mxGeometry relative="1" as="geometry" />
        </mxCell>
        <mxCell id="JOa6reIYoMXjY_oYYzPY-12" value="fill(i_arr, n);" style="rounded=0;whiteSpace=wrap;html=1;" vertex="1" parent="1">
          <mxGeometry x="146" y="330" width="120" height="40" as="geometry" />
        </mxCell>
        <mxCell id="JOa6reIYoMXjY_oYYzPY-18" value="" style="edgeStyle=orthogonalEdgeStyle;rounded=0;orthogonalLoop=1;jettySize=auto;html=1;" edge="1" parent="1" source="JOa6reIYoMXjY_oYYzPY-14" target="JOa6reIYoMXjY_oYYzPY-17">
          <mxGeometry relative="1" as="geometry" />
        </mxCell>
        <mxCell id="JOa6reIYoMXjY_oYYzPY-14" value="&lt;div&gt;cout &amp;lt;&amp;lt; endl &amp;lt;&amp;lt; &quot;Fill an array with floats:&quot; &amp;lt;&amp;lt; endl;&lt;br&gt;&lt;/div&gt;&lt;div&gt;&lt;/div&gt;" style="shape=parallelogram;perimeter=parallelogramPerimeter;whiteSpace=wrap;html=1;fixedSize=1;" vertex="1" parent="1">
          <mxGeometry x="50" y="400" width="312" height="40" as="geometry" />
        </mxCell>
        <mxCell id="JOa6reIYoMXjY_oYYzPY-20" value="" style="edgeStyle=orthogonalEdgeStyle;rounded=0;orthogonalLoop=1;jettySize=auto;html=1;" edge="1" parent="1" source="JOa6reIYoMXjY_oYYzPY-17" target="JOa6reIYoMXjY_oYYzPY-19">
          <mxGeometry relative="1" as="geometry" />
        </mxCell>
        <mxCell id="JOa6reIYoMXjY_oYYzPY-17" value="fill(f_arr, n);" style="rounded=0;whiteSpace=wrap;html=1;" vertex="1" parent="1">
          <mxGeometry x="146" y="470" width="120" height="40" as="geometry" />
        </mxCell>
        <mxCell id="JOa6reIYoMXjY_oYYzPY-22" value="" style="edgeStyle=orthogonalEdgeStyle;rounded=0;orthogonalLoop=1;jettySize=auto;html=1;" edge="1" parent="1" source="JOa6reIYoMXjY_oYYzPY-19" target="JOa6reIYoMXjY_oYYzPY-21">
          <mxGeometry relative="1" as="geometry" />
        </mxCell>
        <mxCell id="JOa6reIYoMXjY_oYYzPY-19" value="&lt;div&gt;&lt;div&gt;cout &amp;lt;&amp;lt; endl &amp;lt;&lt;span style=&quot;background-color: initial;&quot;&gt;&amp;lt; &quot;Fill an array with doubles:&quot; &amp;lt;&amp;lt; endl;&lt;/span&gt;&lt;/div&gt;&lt;div&gt;&lt;span style=&quot;&quot;&gt;&lt;/span&gt;&lt;/div&gt;&lt;/div&gt;&lt;div&gt;&lt;/div&gt;" style="shape=parallelogram;perimeter=parallelogramPerimeter;whiteSpace=wrap;html=1;fixedSize=1;" vertex="1" parent="1">
          <mxGeometry x="50" y="540" width="312" height="40" as="geometry" />
        </mxCell>
        <mxCell id="JOa6reIYoMXjY_oYYzPY-24" value="" style="edgeStyle=orthogonalEdgeStyle;rounded=0;orthogonalLoop=1;jettySize=auto;html=1;" edge="1" parent="1" source="JOa6reIYoMXjY_oYYzPY-21" target="JOa6reIYoMXjY_oYYzPY-23">
          <mxGeometry relative="1" as="geometry" />
        </mxCell>
        <mxCell id="JOa6reIYoMXjY_oYYzPY-21" value="fill(d_arr, n);" style="rounded=0;whiteSpace=wrap;html=1;" vertex="1" parent="1">
          <mxGeometry x="146" y="610" width="120" height="40" as="geometry" />
        </mxCell>
        <mxCell id="JOa6reIYoMXjY_oYYzPY-29" style="edgeStyle=orthogonalEdgeStyle;rounded=0;orthogonalLoop=1;jettySize=auto;html=1;entryX=0.5;entryY=0;entryDx=0;entryDy=0;" edge="1" parent="1" source="JOa6reIYoMXjY_oYYzPY-23" target="JOa6reIYoMXjY_oYYzPY-26">
          <mxGeometry relative="1" as="geometry" />
        </mxCell>
        <mxCell id="JOa6reIYoMXjY_oYYzPY-23" value="&lt;div&gt;cout &amp;lt;&amp;lt; endl&amp;nbsp;&lt;span style=&quot;background-color: initial;&quot;&gt;&amp;lt;&amp;lt; &quot;Given arrays before cyclic move:&quot; &amp;lt;&amp;lt; endl;&lt;/span&gt;&lt;/div&gt;&lt;div&gt;&lt;span style=&quot;&quot;&gt;&lt;/span&gt;&lt;/div&gt;" style="shape=parallelogram;perimeter=parallelogramPerimeter;whiteSpace=wrap;html=1;fixedSize=1;" vertex="1" parent="1">
          <mxGeometry x="30" y="680" width="352" height="40" as="geometry" />
        </mxCell>
        <mxCell id="JOa6reIYoMXjY_oYYzPY-31" style="edgeStyle=orthogonalEdgeStyle;rounded=0;orthogonalLoop=1;jettySize=auto;html=1;entryX=0.5;entryY=0;entryDx=0;entryDy=0;" edge="1" parent="1" source="JOa6reIYoMXjY_oYYzPY-25" target="JOa6reIYoMXjY_oYYzPY-27">
          <mxGeometry relative="1" as="geometry" />
        </mxCell>
        <mxCell id="JOa6reIYoMXjY_oYYzPY-25" value="print(f_arr, n);" style="rounded=0;whiteSpace=wrap;html=1;" vertex="1" parent="1">
          <mxGeometry x="146" y="780" width="120" height="20" as="geometry" />
        </mxCell>
        <mxCell id="JOa6reIYoMXjY_oYYzPY-30" style="edgeStyle=orthogonalEdgeStyle;rounded=0;orthogonalLoop=1;jettySize=auto;html=1;entryX=0.5;entryY=0;entryDx=0;entryDy=0;" edge="1" parent="1" source="JOa6reIYoMXjY_oYYzPY-26" target="JOa6reIYoMXjY_oYYzPY-25">
          <mxGeometry relative="1" as="geometry" />
        </mxCell>
        <mxCell id="JOa6reIYoMXjY_oYYzPY-26" value="print(i_arr, n);" style="rounded=0;whiteSpace=wrap;html=1;" vertex="1" parent="1">
          <mxGeometry x="146" y="740" width="120" height="20" as="geometry" />
        </mxCell>
        <mxCell id="JOa6reIYoMXjY_oYYzPY-38" style="edgeStyle=orthogonalEdgeStyle;rounded=0;orthogonalLoop=1;jettySize=auto;html=1;entryX=0.5;entryY=0;entryDx=0;entryDy=0;" edge="1" parent="1" source="JOa6reIYoMXjY_oYYzPY-27" target="JOa6reIYoMXjY_oYYzPY-35">
          <mxGeometry relative="1" as="geometry" />
        </mxCell>
        <mxCell id="JOa6reIYoMXjY_oYYzPY-27" value="print(d_arr, n);" style="rounded=0;whiteSpace=wrap;html=1;" vertex="1" parent="1">
          <mxGeometry x="146" y="820" width="120" height="20" as="geometry" />
        </mxCell>
        <mxCell id="JOa6reIYoMXjY_oYYzPY-32" style="edgeStyle=orthogonalEdgeStyle;rounded=0;orthogonalLoop=1;jettySize=auto;html=1;entryX=0.5;entryY=0;entryDx=0;entryDy=0;" edge="1" parent="1" source="JOa6reIYoMXjY_oYYzPY-33" target="JOa6reIYoMXjY_oYYzPY-36">
          <mxGeometry relative="1" as="geometry" />
        </mxCell>
        <mxCell id="JOa6reIYoMXjY_oYYzPY-33" value="move(f_arr, n);" style="rounded=0;whiteSpace=wrap;html=1;" vertex="1" parent="1">
          <mxGeometry x="146" y="920" width="120" height="20" as="geometry" />
        </mxCell>
        <mxCell id="JOa6reIYoMXjY_oYYzPY-34" style="edgeStyle=orthogonalEdgeStyle;rounded=0;orthogonalLoop=1;jettySize=auto;html=1;entryX=0.5;entryY=0;entryDx=0;entryDy=0;" edge="1" parent="1" source="JOa6reIYoMXjY_oYYzPY-35" target="JOa6reIYoMXjY_oYYzPY-33">
          <mxGeometry relative="1" as="geometry" />
        </mxCell>
        <mxCell id="JOa6reIYoMXjY_oYYzPY-35" value="move(i_arr, n);" style="rounded=0;whiteSpace=wrap;html=1;" vertex="1" parent="1">
          <mxGeometry x="146" y="880" width="120" height="20" as="geometry" />
        </mxCell>
        <mxCell id="JOa6reIYoMXjY_oYYzPY-40" value="" style="edgeStyle=orthogonalEdgeStyle;rounded=0;orthogonalLoop=1;jettySize=auto;html=1;" edge="1" parent="1" source="JOa6reIYoMXjY_oYYzPY-36" target="JOa6reIYoMXjY_oYYzPY-39">
          <mxGeometry relative="1" as="geometry" />
        </mxCell>
        <mxCell id="JOa6reIYoMXjY_oYYzPY-36" value="move(d_arr, n);" style="rounded=0;whiteSpace=wrap;html=1;" vertex="1" parent="1">
          <mxGeometry x="146" y="960" width="120" height="20" as="geometry" />
        </mxCell>
        <mxCell id="JOa6reIYoMXjY_oYYzPY-47" style="edgeStyle=orthogonalEdgeStyle;rounded=0;orthogonalLoop=1;jettySize=auto;html=1;entryX=0.5;entryY=0;entryDx=0;entryDy=0;" edge="1" parent="1" source="JOa6reIYoMXjY_oYYzPY-39" target="JOa6reIYoMXjY_oYYzPY-44">
          <mxGeometry relative="1" as="geometry" />
        </mxCell>
        <mxCell id="JOa6reIYoMXjY_oYYzPY-39" value="&lt;div&gt;cout &amp;lt;&amp;lt; endl&amp;nbsp;&lt;span style=&quot;background-color: initial;&quot;&gt;&amp;lt;&amp;lt; &quot;Given arrays after cyclic move:&quot; &amp;lt;&amp;lt; endl;&lt;/span&gt;&lt;/div&gt;&lt;div&gt;&lt;span style=&quot;&quot;&gt;&lt;/span&gt;&lt;/div&gt;" style="shape=parallelogram;perimeter=parallelogramPerimeter;whiteSpace=wrap;html=1;fixedSize=1;" vertex="1" parent="1">
          <mxGeometry x="20" y="1000" width="372" height="40" as="geometry" />
        </mxCell>
        <mxCell id="JOa6reIYoMXjY_oYYzPY-41" style="edgeStyle=orthogonalEdgeStyle;rounded=0;orthogonalLoop=1;jettySize=auto;html=1;entryX=0.5;entryY=0;entryDx=0;entryDy=0;" edge="1" parent="1" source="JOa6reIYoMXjY_oYYzPY-42" target="JOa6reIYoMXjY_oYYzPY-45">
          <mxGeometry relative="1" as="geometry" />
        </mxCell>
        <mxCell id="JOa6reIYoMXjY_oYYzPY-42" value="print(f_arr, n);" style="rounded=0;whiteSpace=wrap;html=1;" vertex="1" parent="1">
          <mxGeometry x="146" y="1100" width="120" height="20" as="geometry" />
        </mxCell>
        <mxCell id="JOa6reIYoMXjY_oYYzPY-43" style="edgeStyle=orthogonalEdgeStyle;rounded=0;orthogonalLoop=1;jettySize=auto;html=1;entryX=0.5;entryY=0;entryDx=0;entryDy=0;" edge="1" parent="1" source="JOa6reIYoMXjY_oYYzPY-44" target="JOa6reIYoMXjY_oYYzPY-42">
          <mxGeometry relative="1" as="geometry" />
        </mxCell>
        <mxCell id="JOa6reIYoMXjY_oYYzPY-44" value="print(i_arr, n);" style="rounded=0;whiteSpace=wrap;html=1;" vertex="1" parent="1">
          <mxGeometry x="146" y="1060" width="120" height="20" as="geometry" />
        </mxCell>
        <mxCell id="JOa6reIYoMXjY_oYYzPY-49" style="edgeStyle=orthogonalEdgeStyle;rounded=0;orthogonalLoop=1;jettySize=auto;html=1;entryX=0.5;entryY=0;entryDx=0;entryDy=0;" edge="1" parent="1" source="JOa6reIYoMXjY_oYYzPY-45" target="JOa6reIYoMXjY_oYYzPY-48">
          <mxGeometry relative="1" as="geometry" />
        </mxCell>
        <mxCell id="JOa6reIYoMXjY_oYYzPY-45" value="print(d_arr, n);" style="rounded=0;whiteSpace=wrap;html=1;" vertex="1" parent="1">
          <mxGeometry x="146" y="1140" width="120" height="20" as="geometry" />
        </mxCell>
        <mxCell id="JOa6reIYoMXjY_oYYzPY-48" value="return 0;" style="rounded=1;whiteSpace=wrap;html=1;" vertex="1" parent="1">
          <mxGeometry x="160" y="1190" width="92" height="20" as="geometry" />
        </mxCell>
        <mxCell id="JOa6reIYoMXjY_oYYzPY-50" value="}" style="text;html=1;align=center;verticalAlign=middle;resizable=0;points=[];autosize=1;strokeColor=none;fillColor=none;" vertex="1" parent="1">
          <mxGeometry x="222" y="1210" width="30" height="30" as="geometry" />
        </mxCell>
        <mxCell id="JOa6reIYoMXjY_oYYzPY-55" value="" style="edgeStyle=orthogonalEdgeStyle;rounded=0;orthogonalLoop=1;jettySize=auto;html=1;" edge="1" parent="1" source="JOa6reIYoMXjY_oYYzPY-51" target="JOa6reIYoMXjY_oYYzPY-52">
          <mxGeometry relative="1" as="geometry" />
        </mxCell>
        <mxCell id="JOa6reIYoMXjY_oYYzPY-51" value="&lt;div&gt;template &amp;lt;typename T&amp;gt;&lt;/div&gt;&lt;div&gt;void fill(T arr[], int n)&lt;/div&gt;" style="shape=process;whiteSpace=wrap;html=1;backgroundOutline=1;" vertex="1" parent="1">
          <mxGeometry x="529.97" y="20" width="260" height="60" as="geometry" />
        </mxCell>
        <mxCell id="JOa6reIYoMXjY_oYYzPY-57" value="" style="edgeStyle=orthogonalEdgeStyle;rounded=0;orthogonalLoop=1;jettySize=auto;html=1;" edge="1" parent="1" source="JOa6reIYoMXjY_oYYzPY-52" target="JOa6reIYoMXjY_oYYzPY-56">
          <mxGeometry relative="1" as="geometry" />
        </mxCell>
        <mxCell id="JOa6reIYoMXjY_oYYzPY-59" style="edgeStyle=orthogonalEdgeStyle;rounded=0;orthogonalLoop=1;jettySize=auto;html=1;entryX=0.5;entryY=0;entryDx=0;entryDy=0;" edge="1" parent="1" source="JOa6reIYoMXjY_oYYzPY-52" target="JOa6reIYoMXjY_oYYzPY-58">
          <mxGeometry relative="1" as="geometry">
            <Array as="points">
              <mxPoint x="819.97" y="140" />
            </Array>
          </mxGeometry>
        </mxCell>
        <mxCell id="JOa6reIYoMXjY_oYYzPY-52" value="for (int i = 0; i &amp;lt; n; i++)" style="shape=hexagon;perimeter=hexagonPerimeter2;whiteSpace=wrap;html=1;fixedSize=1;" vertex="1" parent="1">
          <mxGeometry x="519.97" y="120" width="280" height="40" as="geometry" />
        </mxCell>
        <mxCell id="JOa6reIYoMXjY_oYYzPY-60" style="edgeStyle=orthogonalEdgeStyle;rounded=0;orthogonalLoop=1;jettySize=auto;html=1;entryX=0;entryY=0.5;entryDx=0;entryDy=0;" edge="1" parent="1" source="JOa6reIYoMXjY_oYYzPY-56" target="JOa6reIYoMXjY_oYYzPY-52">
          <mxGeometry relative="1" as="geometry">
            <Array as="points">
              <mxPoint x="659.97" y="280" />
              <mxPoint x="499.97" y="280" />
              <mxPoint x="499.97" y="140" />
            </Array>
          </mxGeometry>
        </mxCell>
        <mxCell id="JOa6reIYoMXjY_oYYzPY-56" value="cin &amp;gt;&amp;gt; arr[i];" style="shape=parallelogram;perimeter=parallelogramPerimeter;whiteSpace=wrap;html=1;fixedSize=1;" vertex="1" parent="1">
          <mxGeometry x="599.97" y="200" width="120" height="40" as="geometry" />
        </mxCell>
        <mxCell id="JOa6reIYoMXjY_oYYzPY-58" value="return;" style="rounded=1;whiteSpace=wrap;html=1;" vertex="1" parent="1">
          <mxGeometry x="779.97" y="280" width="80" height="20" as="geometry" />
        </mxCell>
        <mxCell id="JOa6reIYoMXjY_oYYzPY-61" value="1" style="text;html=1;align=center;verticalAlign=middle;resizable=0;points=[];autosize=1;strokeColor=none;fillColor=none;" vertex="1" parent="1">
          <mxGeometry x="629.97" y="160" width="30" height="30" as="geometry" />
        </mxCell>
        <mxCell id="JOa6reIYoMXjY_oYYzPY-62" value="0" style="text;html=1;align=center;verticalAlign=middle;resizable=0;points=[];autosize=1;strokeColor=none;fillColor=none;" vertex="1" parent="1">
          <mxGeometry x="789.97" y="110" width="30" height="30" as="geometry" />
        </mxCell>
        <mxCell id="JOa6reIYoMXjY_oYYzPY-63" value="{" style="text;html=1;align=center;verticalAlign=middle;resizable=0;points=[];autosize=1;strokeColor=none;fillColor=none;" vertex="1" parent="1">
          <mxGeometry x="619.97" y="160" width="30" height="30" as="geometry" />
        </mxCell>
        <mxCell id="JOa6reIYoMXjY_oYYzPY-64" value="}" style="text;html=1;align=center;verticalAlign=middle;resizable=0;points=[];autosize=1;strokeColor=none;fillColor=none;" vertex="1" parent="1">
          <mxGeometry x="659.97" y="250" width="30" height="30" as="geometry" />
        </mxCell>
        <mxCell id="JOa6reIYoMXjY_oYYzPY-66" value="{" style="text;html=1;align=center;verticalAlign=middle;resizable=0;points=[];autosize=1;strokeColor=none;fillColor=none;" vertex="1" parent="1">
          <mxGeometry x="619.97" y="80" width="30" height="30" as="geometry" />
        </mxCell>
        <mxCell id="JOa6reIYoMXjY_oYYzPY-67" value="}" style="text;html=1;align=center;verticalAlign=middle;resizable=0;points=[];autosize=1;strokeColor=none;fillColor=none;" vertex="1" parent="1">
          <mxGeometry x="819.97" y="300" width="30" height="30" as="geometry" />
        </mxCell>
        <mxCell id="JOa6reIYoMXjY_oYYzPY-84" value="" style="edgeStyle=orthogonalEdgeStyle;rounded=0;orthogonalLoop=1;jettySize=auto;html=1;" edge="1" parent="1" source="JOa6reIYoMXjY_oYYzPY-69" target="JOa6reIYoMXjY_oYYzPY-83">
          <mxGeometry relative="1" as="geometry" />
        </mxCell>
        <mxCell id="JOa6reIYoMXjY_oYYzPY-69" value="&lt;div&gt;template &amp;lt;typename T&amp;gt;&lt;/div&gt;&lt;div&gt;void print(T arr[], int n)&lt;/div&gt;" style="shape=process;whiteSpace=wrap;html=1;backgroundOutline=1;" vertex="1" parent="1">
          <mxGeometry x="509.97" y="380" width="260" height="60" as="geometry" />
        </mxCell>
        <mxCell id="JOa6reIYoMXjY_oYYzPY-70" value="" style="edgeStyle=orthogonalEdgeStyle;rounded=0;orthogonalLoop=1;jettySize=auto;html=1;" edge="1" parent="1" source="JOa6reIYoMXjY_oYYzPY-72" target="JOa6reIYoMXjY_oYYzPY-74">
          <mxGeometry relative="1" as="geometry" />
        </mxCell>
        <mxCell id="JOa6reIYoMXjY_oYYzPY-88" style="edgeStyle=orthogonalEdgeStyle;rounded=0;orthogonalLoop=1;jettySize=auto;html=1;entryX=0.5;entryY=0;entryDx=0;entryDy=0;" edge="1" parent="1" source="JOa6reIYoMXjY_oYYzPY-72" target="JOa6reIYoMXjY_oYYzPY-87">
          <mxGeometry relative="1" as="geometry">
            <Array as="points">
              <mxPoint x="810" y="550" />
            </Array>
          </mxGeometry>
        </mxCell>
        <mxCell id="JOa6reIYoMXjY_oYYzPY-72" value="for (int i = 0; i &amp;lt; n; i++)" style="shape=hexagon;perimeter=hexagonPerimeter2;whiteSpace=wrap;html=1;fixedSize=1;" vertex="1" parent="1">
          <mxGeometry x="499.97" y="530" width="280" height="40" as="geometry" />
        </mxCell>
        <mxCell id="JOa6reIYoMXjY_oYYzPY-73" style="edgeStyle=orthogonalEdgeStyle;rounded=0;orthogonalLoop=1;jettySize=auto;html=1;entryX=0;entryY=0.5;entryDx=0;entryDy=0;" edge="1" parent="1" source="JOa6reIYoMXjY_oYYzPY-74" target="JOa6reIYoMXjY_oYYzPY-72">
          <mxGeometry relative="1" as="geometry">
            <Array as="points">
              <mxPoint x="639.97" y="690" />
              <mxPoint x="479.97" y="690" />
              <mxPoint x="479.97" y="550" />
            </Array>
          </mxGeometry>
        </mxCell>
        <mxCell id="JOa6reIYoMXjY_oYYzPY-74" value="cout &amp;lt;&amp;lt; arr[i] &amp;lt;&amp;lt; &quot;, &quot;;" style="shape=parallelogram;perimeter=parallelogramPerimeter;whiteSpace=wrap;html=1;fixedSize=1;" vertex="1" parent="1">
          <mxGeometry x="569.94" y="610" width="140.06" height="40" as="geometry" />
        </mxCell>
        <mxCell id="JOa6reIYoMXjY_oYYzPY-75" value="return;" style="rounded=1;whiteSpace=wrap;html=1;" vertex="1" parent="1">
          <mxGeometry x="770.03" y="690" width="80" height="20" as="geometry" />
        </mxCell>
        <mxCell id="JOa6reIYoMXjY_oYYzPY-76" value="1" style="text;html=1;align=center;verticalAlign=middle;resizable=0;points=[];autosize=1;strokeColor=none;fillColor=none;" vertex="1" parent="1">
          <mxGeometry x="609.97" y="570" width="30" height="30" as="geometry" />
        </mxCell>
        <mxCell id="JOa6reIYoMXjY_oYYzPY-77" value="0" style="text;html=1;align=center;verticalAlign=middle;resizable=0;points=[];autosize=1;strokeColor=none;fillColor=none;" vertex="1" parent="1">
          <mxGeometry x="769.97" y="470" width="30" height="30" as="geometry" />
        </mxCell>
        <mxCell id="JOa6reIYoMXjY_oYYzPY-78" value="{" style="text;html=1;align=center;verticalAlign=middle;resizable=0;points=[];autosize=1;strokeColor=none;fillColor=none;" vertex="1" parent="1">
          <mxGeometry x="589.97" y="570" width="30" height="30" as="geometry" />
        </mxCell>
        <mxCell id="JOa6reIYoMXjY_oYYzPY-79" value="}" style="text;html=1;align=center;verticalAlign=middle;resizable=0;points=[];autosize=1;strokeColor=none;fillColor=none;" vertex="1" parent="1">
          <mxGeometry x="639.97" y="660" width="30" height="30" as="geometry" />
        </mxCell>
        <mxCell id="JOa6reIYoMXjY_oYYzPY-80" value="{" style="text;html=1;align=center;verticalAlign=middle;resizable=0;points=[];autosize=1;strokeColor=none;fillColor=none;" vertex="1" parent="1">
          <mxGeometry x="599.97" y="440" width="30" height="30" as="geometry" />
        </mxCell>
        <mxCell id="JOa6reIYoMXjY_oYYzPY-81" value="}" style="text;html=1;align=center;verticalAlign=middle;resizable=0;points=[];autosize=1;strokeColor=none;fillColor=none;" vertex="1" parent="1">
          <mxGeometry x="819.97" y="710" width="30" height="30" as="geometry" />
        </mxCell>
        <mxCell id="JOa6reIYoMXjY_oYYzPY-86" style="edgeStyle=orthogonalEdgeStyle;rounded=0;orthogonalLoop=1;jettySize=auto;html=1;entryX=0.5;entryY=0;entryDx=0;entryDy=0;" edge="1" parent="1" source="JOa6reIYoMXjY_oYYzPY-83" target="JOa6reIYoMXjY_oYYzPY-72">
          <mxGeometry relative="1" as="geometry" />
        </mxCell>
        <mxCell id="JOa6reIYoMXjY_oYYzPY-83" value="cout &amp;lt;&amp;lt; &#39;[&#39;;" style="shape=parallelogram;perimeter=parallelogramPerimeter;whiteSpace=wrap;html=1;fixedSize=1;" vertex="1" parent="1">
          <mxGeometry x="579.97" y="470" width="120" height="40" as="geometry" />
        </mxCell>
        <mxCell id="JOa6reIYoMXjY_oYYzPY-89" style="edgeStyle=orthogonalEdgeStyle;rounded=0;orthogonalLoop=1;jettySize=auto;html=1;entryX=0.5;entryY=0;entryDx=0;entryDy=0;" edge="1" parent="1" source="JOa6reIYoMXjY_oYYzPY-87" target="JOa6reIYoMXjY_oYYzPY-75">
          <mxGeometry relative="1" as="geometry" />
        </mxCell>
        <mxCell id="JOa6reIYoMXjY_oYYzPY-87" value="cout &amp;lt;&amp;lt; &quot;\b \b\b \b]&quot; &amp;lt;&amp;lt; endl;" style="shape=parallelogram;perimeter=parallelogramPerimeter;whiteSpace=wrap;html=1;fixedSize=1;" vertex="1" parent="1">
          <mxGeometry x="710" y="610" width="200.06" height="40" as="geometry" />
        </mxCell>
        <mxCell id="JOa6reIYoMXjY_oYYzPY-92" value="" style="edgeStyle=orthogonalEdgeStyle;rounded=0;orthogonalLoop=1;jettySize=auto;html=1;" edge="1" parent="1" source="JOa6reIYoMXjY_oYYzPY-90" target="JOa6reIYoMXjY_oYYzPY-91">
          <mxGeometry relative="1" as="geometry" />
        </mxCell>
        <mxCell id="JOa6reIYoMXjY_oYYzPY-90" value="void move(int arr[], int n)" style="shape=process;whiteSpace=wrap;html=1;backgroundOutline=1;" vertex="1" parent="1">
          <mxGeometry x="1050" y="30" width="180" height="40" as="geometry" />
        </mxCell>
        <mxCell id="JOa6reIYoMXjY_oYYzPY-94" value="" style="edgeStyle=orthogonalEdgeStyle;rounded=0;orthogonalLoop=1;jettySize=auto;html=1;" edge="1" parent="1" source="JOa6reIYoMXjY_oYYzPY-91" target="JOa6reIYoMXjY_oYYzPY-93">
          <mxGeometry relative="1" as="geometry" />
        </mxCell>
        <mxCell id="JOa6reIYoMXjY_oYYzPY-91" value="int tmp;" style="rounded=0;whiteSpace=wrap;html=1;" vertex="1" parent="1">
          <mxGeometry x="1090" y="110" width="100" height="40" as="geometry" />
        </mxCell>
        <mxCell id="JOa6reIYoMXjY_oYYzPY-98" style="edgeStyle=orthogonalEdgeStyle;rounded=0;orthogonalLoop=1;jettySize=auto;html=1;entryX=0.5;entryY=0;entryDx=0;entryDy=0;" edge="1" parent="1" source="JOa6reIYoMXjY_oYYzPY-93" target="JOa6reIYoMXjY_oYYzPY-97">
          <mxGeometry relative="1" as="geometry">
            <Array as="points">
              <mxPoint x="1030" y="230" />
            </Array>
          </mxGeometry>
        </mxCell>
        <mxCell id="JOa6reIYoMXjY_oYYzPY-114" style="edgeStyle=orthogonalEdgeStyle;rounded=0;orthogonalLoop=1;jettySize=auto;html=1;entryX=0.5;entryY=0;entryDx=0;entryDy=0;" edge="1" parent="1" source="JOa6reIYoMXjY_oYYzPY-93" target="JOa6reIYoMXjY_oYYzPY-113">
          <mxGeometry relative="1" as="geometry" />
        </mxCell>
        <mxCell id="JOa6reIYoMXjY_oYYzPY-93" value="if (arr[0] % 2 == 0) {" style="rhombus;whiteSpace=wrap;html=1;" vertex="1" parent="1">
          <mxGeometry x="1070" y="190" width="140" height="80" as="geometry" />
        </mxCell>
        <mxCell id="JOa6reIYoMXjY_oYYzPY-95" value="1" style="text;html=1;align=center;verticalAlign=middle;resizable=0;points=[];autosize=1;strokeColor=none;fillColor=none;" vertex="1" parent="1">
          <mxGeometry x="1060" y="200" width="30" height="30" as="geometry" />
        </mxCell>
        <mxCell id="JOa6reIYoMXjY_oYYzPY-96" value="0" style="text;html=1;align=center;verticalAlign=middle;resizable=0;points=[];autosize=1;strokeColor=none;fillColor=none;" vertex="1" parent="1">
          <mxGeometry x="1190" y="200" width="30" height="30" as="geometry" />
        </mxCell>
        <mxCell id="JOa6reIYoMXjY_oYYzPY-102" style="edgeStyle=orthogonalEdgeStyle;rounded=0;orthogonalLoop=1;jettySize=auto;html=1;entryX=0.5;entryY=0;entryDx=0;entryDy=0;" edge="1" parent="1" source="JOa6reIYoMXjY_oYYzPY-97" target="JOa6reIYoMXjY_oYYzPY-99">
          <mxGeometry relative="1" as="geometry" />
        </mxCell>
        <mxCell id="JOa6reIYoMXjY_oYYzPY-97" value="tmp = arr[0];" style="rounded=0;whiteSpace=wrap;html=1;" vertex="1" parent="1">
          <mxGeometry x="970" y="295" width="120" height="40" as="geometry" />
        </mxCell>
        <mxCell id="JOa6reIYoMXjY_oYYzPY-101" style="edgeStyle=orthogonalEdgeStyle;rounded=0;orthogonalLoop=1;jettySize=auto;html=1;entryX=0.5;entryY=0;entryDx=0;entryDy=0;" edge="1" parent="1" source="JOa6reIYoMXjY_oYYzPY-99" target="JOa6reIYoMXjY_oYYzPY-100">
          <mxGeometry relative="1" as="geometry" />
        </mxCell>
        <mxCell id="JOa6reIYoMXjY_oYYzPY-105" style="edgeStyle=orthogonalEdgeStyle;rounded=0;orthogonalLoop=1;jettySize=auto;html=1;entryX=0.5;entryY=0;entryDx=0;entryDy=0;" edge="1" parent="1" source="JOa6reIYoMXjY_oYYzPY-99" target="JOa6reIYoMXjY_oYYzPY-104">
          <mxGeometry relative="1" as="geometry" />
        </mxCell>
        <mxCell id="JOa6reIYoMXjY_oYYzPY-99" value="for (int i = 0; i &lt; n - 1; i--)" style="shape=hexagon;perimeter=hexagonPerimeter2;whiteSpace=wrap;html=1;fixedSize=1;" vertex="1" parent="1">
          <mxGeometry x="950" y="370" width="160" height="40" as="geometry" />
        </mxCell>
        <mxCell id="JOa6reIYoMXjY_oYYzPY-103" style="edgeStyle=orthogonalEdgeStyle;rounded=0;orthogonalLoop=1;jettySize=auto;html=1;entryX=0;entryY=0.5;entryDx=0;entryDy=0;" edge="1" parent="1" source="JOa6reIYoMXjY_oYYzPY-100" target="JOa6reIYoMXjY_oYYzPY-99">
          <mxGeometry relative="1" as="geometry">
            <Array as="points">
              <mxPoint x="1030" y="520" />
              <mxPoint x="930" y="520" />
              <mxPoint x="930" y="390" />
            </Array>
          </mxGeometry>
        </mxCell>
        <mxCell id="JOa6reIYoMXjY_oYYzPY-100" value="arr[i] = arr[i + 1];" style="rounded=0;whiteSpace=wrap;html=1;" vertex="1" parent="1">
          <mxGeometry x="970" y="440" width="120" height="40" as="geometry" />
        </mxCell>
        <mxCell id="JOa6reIYoMXjY_oYYzPY-128" style="edgeStyle=orthogonalEdgeStyle;rounded=0;orthogonalLoop=1;jettySize=auto;html=1;" edge="1" parent="1" source="JOa6reIYoMXjY_oYYzPY-104">
          <mxGeometry relative="1" as="geometry">
            <mxPoint x="1400" y="620" as="targetPoint" />
            <Array as="points">
              <mxPoint x="1180" y="620" />
            </Array>
          </mxGeometry>
        </mxCell>
        <mxCell id="JOa6reIYoMXjY_oYYzPY-104" value="arr[n - 1] = tmp;" style="rounded=0;whiteSpace=wrap;html=1;" vertex="1" parent="1">
          <mxGeometry x="1120" y="440" width="120" height="40" as="geometry" />
        </mxCell>
        <mxCell id="JOa6reIYoMXjY_oYYzPY-106" value="1" style="text;html=1;align=center;verticalAlign=middle;resizable=0;points=[];autosize=1;strokeColor=none;fillColor=none;" vertex="1" parent="1">
          <mxGeometry x="1000" y="405" width="30" height="30" as="geometry" />
        </mxCell>
        <mxCell id="JOa6reIYoMXjY_oYYzPY-107" value="{" style="text;html=1;align=center;verticalAlign=middle;resizable=0;points=[];autosize=1;strokeColor=none;fillColor=none;" vertex="1" parent="1">
          <mxGeometry x="990" y="410" width="30" height="30" as="geometry" />
        </mxCell>
        <mxCell id="JOa6reIYoMXjY_oYYzPY-108" value="}" style="text;html=1;align=center;verticalAlign=middle;resizable=0;points=[];autosize=1;strokeColor=none;fillColor=none;" vertex="1" parent="1">
          <mxGeometry x="1030" y="480" width="30" height="30" as="geometry" />
        </mxCell>
        <mxCell id="JOa6reIYoMXjY_oYYzPY-109" value="0" style="text;html=1;align=center;verticalAlign=middle;resizable=0;points=[];autosize=1;strokeColor=none;fillColor=none;" vertex="1" parent="1">
          <mxGeometry x="1100" y="360" width="30" height="30" as="geometry" />
        </mxCell>
        <mxCell id="JOa6reIYoMXjY_oYYzPY-110" value="{" style="text;html=1;align=center;verticalAlign=middle;resizable=0;points=[];autosize=1;strokeColor=none;fillColor=none;" vertex="1" parent="1">
          <mxGeometry x="990" y="240" width="30" height="30" as="geometry" />
        </mxCell>
        <mxCell id="JOa6reIYoMXjY_oYYzPY-112" value="}" style="text;html=1;align=center;verticalAlign=middle;resizable=0;points=[];autosize=1;strokeColor=none;fillColor=none;" vertex="1" parent="1">
          <mxGeometry x="1190" y="490" width="30" height="30" as="geometry" />
        </mxCell>
        <mxCell id="JOa6reIYoMXjY_oYYzPY-116" value="" style="edgeStyle=orthogonalEdgeStyle;rounded=0;orthogonalLoop=1;jettySize=auto;html=1;" edge="1" parent="1" source="JOa6reIYoMXjY_oYYzPY-113" target="JOa6reIYoMXjY_oYYzPY-115">
          <mxGeometry relative="1" as="geometry" />
        </mxCell>
        <mxCell id="JOa6reIYoMXjY_oYYzPY-113" value="tmp = arr[n - 1];" style="rounded=0;whiteSpace=wrap;html=1;" vertex="1" parent="1">
          <mxGeometry x="1339.97" y="300" width="120" height="40" as="geometry" />
        </mxCell>
        <mxCell id="JOa6reIYoMXjY_oYYzPY-118" value="" style="edgeStyle=orthogonalEdgeStyle;rounded=0;orthogonalLoop=1;jettySize=auto;html=1;" edge="1" parent="1" source="JOa6reIYoMXjY_oYYzPY-115" target="JOa6reIYoMXjY_oYYzPY-117">
          <mxGeometry relative="1" as="geometry" />
        </mxCell>
        <mxCell id="JOa6reIYoMXjY_oYYzPY-127" style="edgeStyle=orthogonalEdgeStyle;rounded=0;orthogonalLoop=1;jettySize=auto;html=1;entryX=0.5;entryY=0;entryDx=0;entryDy=0;" edge="1" parent="1" source="JOa6reIYoMXjY_oYYzPY-115" target="JOa6reIYoMXjY_oYYzPY-126">
          <mxGeometry relative="1" as="geometry">
            <Array as="points">
              <mxPoint x="1550" y="385" />
            </Array>
          </mxGeometry>
        </mxCell>
        <mxCell id="JOa6reIYoMXjY_oYYzPY-115" value="for (int i = n - 1; i &amp;gt; 0; i--)&amp;nbsp;" style="shape=hexagon;perimeter=hexagonPerimeter2;whiteSpace=wrap;html=1;fixedSize=1;" vertex="1" parent="1">
          <mxGeometry x="1299.97" y="365" width="200" height="40" as="geometry" />
        </mxCell>
        <mxCell id="JOa6reIYoMXjY_oYYzPY-119" style="edgeStyle=orthogonalEdgeStyle;rounded=0;orthogonalLoop=1;jettySize=auto;html=1;entryX=0;entryY=0.5;entryDx=0;entryDy=0;" edge="1" parent="1" source="JOa6reIYoMXjY_oYYzPY-117" target="JOa6reIYoMXjY_oYYzPY-115">
          <mxGeometry relative="1" as="geometry">
            <Array as="points">
              <mxPoint x="1399.97" y="500" />
              <mxPoint x="1279.97" y="500" />
              <mxPoint x="1279.97" y="385" />
            </Array>
          </mxGeometry>
        </mxCell>
        <mxCell id="JOa6reIYoMXjY_oYYzPY-117" value="arr[i] = arr[i - 1];" style="rounded=0;whiteSpace=wrap;html=1;" vertex="1" parent="1">
          <mxGeometry x="1339.97" y="435" width="120" height="40" as="geometry" />
        </mxCell>
        <mxCell id="JOa6reIYoMXjY_oYYzPY-120" value="0" style="text;html=1;align=center;verticalAlign=middle;resizable=0;points=[];autosize=1;strokeColor=none;fillColor=none;" vertex="1" parent="1">
          <mxGeometry x="1490" y="350" width="30" height="30" as="geometry" />
        </mxCell>
        <mxCell id="JOa6reIYoMXjY_oYYzPY-121" value="1" style="text;html=1;align=center;verticalAlign=middle;resizable=0;points=[];autosize=1;strokeColor=none;fillColor=none;" vertex="1" parent="1">
          <mxGeometry x="1370" y="405" width="30" height="30" as="geometry" />
        </mxCell>
        <mxCell id="JOa6reIYoMXjY_oYYzPY-123" value="{" style="text;html=1;align=center;verticalAlign=middle;resizable=0;points=[];autosize=1;strokeColor=none;fillColor=none;" vertex="1" parent="1">
          <mxGeometry x="1360" y="405" width="30" height="30" as="geometry" />
        </mxCell>
        <mxCell id="JOa6reIYoMXjY_oYYzPY-124" value="}" style="text;html=1;align=center;verticalAlign=middle;resizable=0;points=[];autosize=1;strokeColor=none;fillColor=none;" vertex="1" parent="1">
          <mxGeometry x="1420" y="475" width="30" height="30" as="geometry" />
        </mxCell>
        <mxCell id="JOa6reIYoMXjY_oYYzPY-125" value="}" style="text;html=1;align=center;verticalAlign=middle;resizable=0;points=[];autosize=1;strokeColor=none;fillColor=none;" vertex="1" parent="1">
          <mxGeometry x="1560" y="450" width="30" height="30" as="geometry" />
        </mxCell>
        <mxCell id="JOa6reIYoMXjY_oYYzPY-130" style="edgeStyle=orthogonalEdgeStyle;rounded=0;orthogonalLoop=1;jettySize=auto;html=1;" edge="1" parent="1" source="JOa6reIYoMXjY_oYYzPY-126">
          <mxGeometry relative="1" as="geometry">
            <mxPoint x="1400" y="620" as="targetPoint" />
            <Array as="points">
              <mxPoint x="1550" y="620" />
            </Array>
          </mxGeometry>
        </mxCell>
        <mxCell id="JOa6reIYoMXjY_oYYzPY-126" value="arr[0] = tmp;" style="rounded=0;whiteSpace=wrap;html=1;" vertex="1" parent="1">
          <mxGeometry x="1500" y="408" width="100" height="40" as="geometry" />
        </mxCell>
        <mxCell id="JOa6reIYoMXjY_oYYzPY-132" value="return;" style="rounded=1;whiteSpace=wrap;html=1;" vertex="1" parent="1">
          <mxGeometry x="1359.97" y="680" width="80" height="20" as="geometry" />
        </mxCell>
        <mxCell id="JOa6reIYoMXjY_oYYzPY-133" value="" style="endArrow=classic;html=1;rounded=0;entryX=0.5;entryY=0;entryDx=0;entryDy=0;" edge="1" parent="1" target="JOa6reIYoMXjY_oYYzPY-132">
          <mxGeometry width="50" height="50" relative="1" as="geometry">
            <mxPoint x="1400" y="620" as="sourcePoint" />
            <mxPoint x="1450" y="570" as="targetPoint" />
          </mxGeometry>
        </mxCell>
        <mxCell id="JOa6reIYoMXjY_oYYzPY-134" value="}" style="text;html=1;align=center;verticalAlign=middle;resizable=0;points=[];autosize=1;strokeColor=none;fillColor=none;" vertex="1" parent="1">
          <mxGeometry x="1400" y="710" width="30" height="30" as="geometry" />
        </mxCell>
        <mxCell id="JOa6reIYoMXjY_oYYzPY-135" value="{" style="text;html=1;align=center;verticalAlign=middle;resizable=0;points=[];autosize=1;strokeColor=none;fillColor=none;" vertex="1" parent="1">
          <mxGeometry x="1100" y="70" width="30" height="30" as="geometry" />
        </mxCell>
        <mxCell id="JOa6reIYoMXjY_oYYzPY-136" value="{" style="text;html=1;align=center;verticalAlign=middle;resizable=0;points=[];autosize=1;strokeColor=none;fillColor=none;" vertex="1" parent="1">
          <mxGeometry x="1340" y="250" width="30" height="30" as="geometry" />
        </mxCell>
      </root>
    </mxGraphModel>
  </diagram>
</mxfile>
